<svg width="152" height="32" viewBox="0 0 152 32" fill="none" xmlns="http://www.w3.org/2000/svg">
<path d="M9.95801 9.10599C12.8056 9.10608 15.0458 10.0677 16.6592 11.9995L16.9521 12.3697C18.3666 14.2669 19.0654 16.8338 19.0654 20.0533C19.0654 23.2727 18.3666 25.8396 16.9521 27.7369L16.6592 28.107C15.0458 30.0388 12.8056 30.9995 9.95801 30.9995C7.11026 30.9995 4.86929 30.0389 3.25586 28.107C1.64532 26.1785 0.84962 23.4873 0.849609 20.0533C0.849609 16.6193 1.64536 13.928 3.25586 11.9995C4.86929 10.0676 7.11026 9.10599 9.95801 9.10599ZM9.95801 11.8052C7.99003 11.8052 6.53402 12.4891 5.56348 13.8423C4.58633 15.2049 4.08594 17.2675 4.08594 20.0533C4.08595 22.839 4.58634 24.9016 5.56348 26.2642C6.53402 27.6174 7.99007 28.3003 9.95801 28.3003C11.9259 28.3002 13.3821 27.6175 14.3525 26.2642C15.3297 24.9016 15.8291 22.839 15.8291 20.0533C15.8291 17.2675 15.3296 15.2049 14.3525 13.8423C13.3821 12.489 11.9259 11.8053 9.95801 11.8052Z" fill="black" stroke="black" stroke-width="0.3"/>
<path d="M39.146 9.10599C39.6129 9.10599 40.0127 9.27108 40.3354 9.59916L40.4487 9.72611C40.6956 10.0297 40.8188 10.3911 40.8188 10.8042V28.9761C40.8188 29.3681 40.6939 29.716 40.4478 30.0152L40.3354 30.1402C40.0384 30.4421 39.6648 30.5923 39.2261 30.5923C38.7876 30.5923 38.4042 30.4423 38.0825 30.1451L38.0767 30.1402C37.7562 29.8144 37.5933 29.4239 37.5933 28.9761V27.5777C35.7493 29.852 33.4738 30.9995 30.7681 30.9995C28.4159 30.9995 26.6555 30.3396 25.522 28.9908L25.521 28.9898C24.4185 27.645 23.8833 25.4417 23.8833 22.4165V10.8042C23.8834 10.3364 24.029 9.93357 24.3228 9.60501L24.3276 9.59916L24.4526 9.48392C24.7517 9.23271 25.1087 9.10599 25.5171 9.10599C25.9839 9.10604 26.3838 9.27113 26.7065 9.59916L26.8198 9.72611C27.0667 10.0296 27.1899 10.3912 27.1899 10.8042V22.0093C27.19 24.4489 27.5524 26.0865 28.2397 26.9673L28.3726 27.1216C29.0621 27.8693 30.1177 28.2554 31.5698 28.2554C32.8778 28.2554 34.1262 27.726 35.3169 26.647L35.5542 26.4234C36.814 25.169 37.4331 23.8207 37.4331 22.3755V10.8042C37.4332 10.3321 37.5939 9.92704 37.9165 9.59916L37.9214 9.59427C38.269 9.27052 38.6796 9.106 39.146 9.10599Z" fill="black" stroke="black" stroke-width="0.3"/>
<path d="M52.4072 2.75492C52.9118 2.75496 53.3458 2.91372 53.6992 3.23343L53.8232 3.35746C54.095 3.65485 54.2333 4.01136 54.2334 4.42191V10.1309C54.2334 10.2234 54.2591 10.2664 54.2842 10.2891C54.3121 10.3142 54.3683 10.3398 54.4805 10.3399H61.0996C61.5162 10.3399 61.8662 10.4719 62.1338 10.7442H62.1328C62.425 10.9849 62.5731 11.3029 62.5732 11.6875C62.5732 12.0286 62.458 12.3265 62.2314 12.5743L62.127 12.6778C61.8587 12.9204 61.511 13.0352 61.0996 13.0352H54.4805C54.3681 13.0353 54.3121 13.0618 54.2842 13.0869C54.2591 13.1096 54.2334 13.1526 54.2334 13.2452V23.7842C54.2334 24.7359 54.3029 25.5191 54.4395 26.1368C54.5763 26.7558 54.7781 27.1959 55.0322 27.4746C55.546 28.0113 56.5628 28.3047 58.1436 28.3047C59.0787 28.3047 59.8466 28.2384 60.4502 28.1084L60.458 28.1065C60.819 28.0472 61.1523 28.1228 61.4492 28.3311C61.7749 28.5124 61.9561 28.7819 61.9561 29.1338C61.9559 29.5458 61.8085 29.914 61.5205 30.2325L61.5195 30.2315C61.2602 30.5509 60.9191 30.7409 60.5029 30.7989L60.502 30.7979C59.7264 30.9323 58.7479 31 57.5693 31C54.9724 31 53.1271 30.5214 52.083 29.5215L52.0791 29.5186C51.0648 28.4897 50.5801 26.6538 50.5801 24.0635V13.2452C50.5801 13.1528 50.5553 13.1096 50.5303 13.0869C50.5024 13.0617 50.4458 13.0352 50.333 13.0352H47.1123C46.7002 13.0352 46.3416 12.9197 46.0469 12.6827L46.04 12.6778L46.0342 12.6709C45.7705 12.4024 45.6377 12.0714 45.6377 11.6875C45.6378 11.3037 45.7705 10.9823 46.04 10.7383L46.1543 10.6446C46.4261 10.4411 46.7478 10.3399 47.1123 10.3399H50.333C50.4458 10.3399 50.5024 10.3143 50.5303 10.2891C50.5553 10.2664 50.5801 10.2234 50.5801 10.1309V4.42191C50.5802 3.95269 50.7612 3.55373 51.1152 3.23343L51.251 3.12113C51.5778 2.87649 51.9655 2.75492 52.4072 2.75492Z" fill="black" stroke="black" stroke-width="0.3"/>
<path d="M103.084 2.75492C103.556 2.75492 103.961 2.91596 104.289 3.23734L104.404 3.36136C104.656 3.65927 104.782 4.01485 104.782 4.42191V10.1309C104.782 10.2267 104.807 10.271 104.829 10.293C104.852 10.3155 104.899 10.3399 104.999 10.3399H111.108C111.493 10.3399 111.816 10.4712 112.062 10.7364L112.161 10.8311C112.375 11.061 112.48 11.3499 112.48 11.6875C112.48 12.025 112.375 12.3211 112.165 12.5694L112.069 12.6729C111.82 12.9177 111.494 13.0352 111.108 13.0352H104.999C104.9 13.0352 104.852 13.0597 104.829 13.0821C104.807 13.104 104.782 13.1493 104.782 13.2452V23.7842C104.782 24.7365 104.846 25.521 104.973 26.1397C105.099 26.7586 105.285 27.1989 105.519 27.4776L105.612 27.5743C106.108 28.0467 107.013 28.3047 108.38 28.3047C109.242 28.3047 109.949 28.2389 110.504 28.1094L110.512 28.1075L110.639 28.0909C110.931 28.0679 111.202 28.1501 111.444 28.335H111.443C111.747 28.519 111.91 28.7887 111.91 29.1338C111.91 29.5393 111.776 29.9025 111.514 30.2198L111.515 30.2207C111.275 30.5432 110.956 30.7368 110.565 30.7969L110.566 30.7979C109.848 30.9333 108.941 31 107.85 31C105.449 31 103.739 30.5202 102.772 29.5166L102.77 29.5137C101.834 28.485 101.387 26.6517 101.387 24.0635V13.2452C101.387 13.1493 101.362 13.104 101.34 13.0821C101.317 13.0596 101.269 13.0352 101.17 13.0352H98.1963C97.8588 13.0351 97.5606 12.9453 97.3076 12.7627L97.2021 12.6797L97.1953 12.6739L97.1895 12.667C96.9453 12.3979 96.8242 12.0679 96.8242 11.6875C96.8243 11.3075 96.9453 10.9872 97.1953 10.7422L97.3008 10.6485C97.5537 10.4432 97.8543 10.3399 98.1963 10.3399H101.17C101.27 10.3399 101.317 10.3155 101.34 10.293C101.362 10.271 101.387 10.2266 101.387 10.1309V4.42191C101.387 3.95677 101.552 3.55878 101.88 3.23734L102.006 3.12406C102.309 2.87805 102.671 2.755 103.084 2.75492Z" fill="black" stroke="black" stroke-width="0.3"/>
<path d="M90.2563 9.7411C90.7475 9.7411 91.1597 9.91777 91.4819 10.2694H91.4829C91.8288 10.6182 92.0063 11.032 92.0063 11.5038V29.2382C92.0063 29.708 91.829 30.1189 91.4858 30.4667L91.4868 30.4677C91.1639 30.8225 90.7497 30.9999 90.2563 30.9999C89.763 30.9999 89.3378 30.8223 88.9897 30.4716L88.9858 30.4677C88.6679 30.1181 88.5064 29.7058 88.5063 29.2382V11.5038C88.5063 11.036 88.6679 10.6239 88.9858 10.2743L88.9897 10.2694L89.1245 10.1464C89.4457 9.87748 89.8247 9.7411 90.2563 9.7411Z" fill="black" stroke="black" stroke-width="0.3"/>
<path d="M90.2563 0.849609C90.7515 0.849618 91.1663 1.03394 91.4888 1.39941H91.4878C91.8306 1.75756 92.0063 2.18037 92.0063 2.66211V3.78418C92.0063 4.22938 91.8722 4.62127 91.606 4.9541L91.4839 5.09277C91.1602 5.42902 90.747 5.5957 90.2563 5.5957C89.827 5.5957 89.4488 5.46818 89.1274 5.21387L88.9937 5.09766L88.9839 5.08789C88.665 4.72642 88.5064 4.2889 88.5063 3.78418V2.66211C88.5063 2.18244 88.6666 1.75917 88.9839 1.39941L88.9888 1.39453L89.1226 1.26758C89.4436 0.990494 89.8234 0.849609 90.2563 0.849609Z" fill="#FAD220" stroke="#FAD220" stroke-width="0.3"/>
<path d="M80.2688 0.849609C81.2327 0.849617 82.1261 0.945133 82.9485 1.13574H82.9495C83.3569 1.22305 83.6903 1.42816 83.9436 1.74902L84.0344 1.86328C84.2308 2.13702 84.3274 2.45657 84.3274 2.81543C84.3273 3.16398 84.1699 3.44954 83.8743 3.66309L83.8665 3.66895L83.7874 3.54102L83.8655 3.66895C83.572 3.85052 83.2564 3.8974 82.928 3.80762V3.80859C82.2443 3.64986 81.5459 3.57031 80.8333 3.57031C79.2707 3.57032 78.1884 3.87619 77.5461 4.45312L77.4241 4.57227C76.8297 5.1995 76.51 6.41048 76.51 8.26074V10.3184C76.5101 10.4131 76.5351 10.4575 76.5598 10.4805C76.5868 10.5053 76.6409 10.5312 76.7502 10.5312H82.4407C82.8524 10.5313 83.1986 10.6651 83.4622 10.9404C83.7492 11.1838 83.8938 11.5053 83.8938 11.8916C83.8937 12.2345 83.7798 12.534 83.5569 12.7842L83.4543 12.8887C83.1899 13.1342 82.8471 13.2509 82.4407 13.251H76.7502C76.6411 13.251 76.5868 13.2769 76.5598 13.3018C76.535 13.3248 76.51 13.3699 76.51 13.4648V29.2363C76.51 29.7127 76.3151 30.1278 75.9407 30.4756C75.5662 30.8233 75.1244 31 74.6223 31C74.183 31 73.7897 30.8653 73.4475 30.5986L73.304 30.4756C72.9294 30.1277 72.7346 29.7128 72.7346 29.2363V13.4648C72.7346 13.3699 72.7096 13.3248 72.6848 13.3018C72.6579 13.2769 72.603 13.251 72.4934 13.251H68.845C68.4381 13.2509 68.0847 13.1343 67.7942 12.8945L67.7874 12.8887L67.7815 12.8828C67.5219 12.6116 67.3919 12.2778 67.3918 11.8916C67.3918 11.5054 67.522 11.1812 67.7874 10.9346L67.8997 10.8398C68.1676 10.6338 68.4847 10.5313 68.845 10.5312H72.4934C72.6031 10.5312 72.6579 10.5054 72.6848 10.4805C72.7096 10.4575 72.7346 10.4131 72.7346 10.3184V8.38184C72.7346 5.78284 73.317 3.86602 74.5159 2.66895L74.7542 2.44629C75.9869 1.37296 77.835 0.849609 80.2688 0.849609Z" fill="black" stroke="black" stroke-width="0.3"/>
<rect width="1.65584" height="22.9992" rx="0.827921" transform="matrix(0.938421 0.345495 -0.350026 0.93674 123.589 8.88369)" fill="black"/>
<path d="M124.097 20.1033C124.025 20.1033 123.964 20.081 123.914 20.0365C123.869 19.9863 123.847 19.9251 123.847 19.8526C123.847 19.7802 123.869 19.7217 123.914 19.6771C123.964 19.627 124.025 19.6019 124.097 19.6019H124.798C124.848 19.6019 124.873 19.5769 124.873 19.5267V19.1256C124.873 18.5908 124.985 18.2036 125.207 17.964C125.435 17.7189 125.797 17.5963 126.292 17.5963C126.475 17.5963 126.645 17.6158 126.8 17.6548C126.873 17.6715 126.931 17.7105 126.976 17.7718C127.02 17.8275 127.042 17.8944 127.042 17.9724C127.042 18.0337 127.017 18.0838 126.967 18.1228C126.917 18.1562 126.864 18.1646 126.809 18.1479C126.675 18.1144 126.539 18.0977 126.4 18.0977C126.077 18.0977 125.852 18.1702 125.724 18.315C125.602 18.4543 125.541 18.7161 125.541 19.1005V19.5267C125.541 19.5769 125.566 19.6019 125.616 19.6019H126.709C126.781 19.6019 126.839 19.627 126.884 19.6771C126.934 19.7217 126.959 19.7802 126.959 19.8526C126.959 19.9251 126.934 19.9863 126.884 20.0365C126.839 20.081 126.781 20.1033 126.709 20.1033H125.616C125.566 20.1033 125.541 20.1284 125.541 20.1785V23.446C125.541 23.5351 125.507 23.6131 125.441 23.68C125.374 23.7468 125.296 23.7803 125.207 23.7803C125.118 23.7803 125.04 23.7468 124.973 23.68C124.907 23.6131 124.873 23.5351 124.873 23.446V20.1785C124.873 20.1284 124.848 20.1033 124.798 20.1033H124.097Z" fill="black"/>
<path d="M130.1 21.4822C129.55 21.4822 129.133 21.5713 128.849 21.7496C128.571 21.9279 128.432 22.1786 128.432 22.5017C128.432 22.7524 128.501 22.9557 128.64 23.1117C128.785 23.2621 128.974 23.3374 129.208 23.3374C129.608 23.3374 129.939 23.2036 130.2 22.9362C130.467 22.6688 130.601 22.3151 130.601 21.8749V21.5574C130.601 21.5072 130.576 21.4822 130.526 21.4822H130.1ZM129.074 23.8638C128.696 23.8638 128.387 23.744 128.148 23.5045C127.909 23.2649 127.789 22.9474 127.789 22.5518C127.789 22.0894 127.973 21.7189 128.34 21.4404C128.707 21.1618 129.294 21.0226 130.1 21.0226H130.526C130.576 21.0226 130.601 21.0003 130.601 20.9557V20.7969C130.601 20.4571 130.523 20.2203 130.367 20.0866C130.211 19.9473 129.936 19.8777 129.541 19.8777C129.158 19.8777 128.743 19.9501 128.298 20.095C128.232 20.1173 128.17 20.1089 128.115 20.0699C128.059 20.0309 128.031 19.9752 128.031 19.9028C128.031 19.7078 128.123 19.5824 128.307 19.5267C128.718 19.4097 129.13 19.3512 129.541 19.3512C130.181 19.3512 130.623 19.4682 130.868 19.7022C131.118 19.9362 131.243 20.3568 131.243 20.9641V23.4794C131.243 23.563 131.213 23.6354 131.151 23.6967C131.096 23.7524 131.026 23.7803 130.943 23.7803C130.859 23.7803 130.787 23.7524 130.726 23.6967C130.665 23.6354 130.634 23.563 130.634 23.4794L130.626 23.0449C130.626 23.0393 130.623 23.0365 130.617 23.0365C130.606 23.0365 130.601 23.0421 130.601 23.0532C130.273 23.5936 129.764 23.8638 129.074 23.8638Z" fill="black"/>
<path d="M133.749 21.8332C133.21 21.705 132.823 21.5407 132.59 21.3401C132.362 21.134 132.248 20.8694 132.248 20.5462C132.248 20.1785 132.384 19.8888 132.657 19.6771C132.935 19.4599 133.329 19.3512 133.841 19.3512C134.225 19.3512 134.606 19.4014 134.984 19.5016C135.157 19.5462 135.243 19.6604 135.243 19.8443C135.243 19.9111 135.218 19.9613 135.168 19.9947C135.118 20.0281 135.059 20.0365 134.992 20.0198C134.625 19.9083 134.258 19.8526 133.891 19.8526C133.224 19.8526 132.89 20.0671 132.89 20.4961C132.89 20.6855 132.957 20.8443 133.09 20.9724C133.224 21.095 133.466 21.1953 133.816 21.2733C134.417 21.407 134.828 21.5769 135.051 21.783C135.279 21.9891 135.393 22.2844 135.393 22.6688C135.393 23.0421 135.248 23.3346 134.959 23.5463C134.675 23.758 134.272 23.8638 133.749 23.8638C133.343 23.8638 132.957 23.8025 132.59 23.68C132.417 23.6243 132.331 23.5045 132.331 23.3206C132.331 23.2594 132.359 23.212 132.415 23.1786C132.47 23.1396 132.529 23.1312 132.59 23.1535C132.951 23.2928 133.321 23.3624 133.699 23.3624C134.4 23.3624 134.75 23.1312 134.75 22.6688C134.75 22.4683 134.678 22.3011 134.534 22.1674C134.395 22.0337 134.133 21.9223 133.749 21.8332Z" fill="black"/>
<path d="M137.112 23.6883C137.051 23.7496 136.976 23.7803 136.887 23.7803C136.798 23.7803 136.72 23.7496 136.653 23.6883C136.592 23.6271 136.561 23.5518 136.561 23.4627V17.8303C136.561 17.7412 136.592 17.666 136.653 17.6047C136.72 17.5434 136.798 17.5128 136.887 17.5128C136.976 17.5128 137.051 17.5434 137.112 17.6047C137.173 17.666 137.204 17.7412 137.204 17.8303V20.0866C137.204 20.0922 137.207 20.095 137.212 20.095C137.218 20.095 137.223 20.0922 137.229 20.0866C137.629 19.5964 138.094 19.3512 138.622 19.3512C139.128 19.3512 139.495 19.4933 139.723 19.7774C139.951 20.056 140.065 20.5267 140.065 21.1897V23.4627C140.065 23.5518 140.035 23.6271 139.974 23.6883C139.918 23.7496 139.846 23.7803 139.757 23.7803C139.668 23.7803 139.593 23.7496 139.531 23.6883C139.47 23.6271 139.44 23.5518 139.44 23.4627V21.2983C139.44 20.7356 139.365 20.3596 139.214 20.1702C139.07 19.9752 138.817 19.8777 138.455 19.8777C138.166 19.8777 137.885 20.017 137.613 20.2955C137.34 20.5685 137.204 20.8499 137.204 21.1396V23.4627C137.204 23.5518 137.173 23.6271 137.112 23.6883Z" fill="black"/>
<path d="M142.179 23.68C142.117 23.7468 142.04 23.7803 141.945 23.7803C141.85 23.7803 141.77 23.7468 141.703 23.68C141.642 23.6131 141.611 23.5351 141.611 23.446V19.7691C141.611 19.6799 141.642 19.6019 141.703 19.5351C141.77 19.4682 141.85 19.4348 141.945 19.4348C142.04 19.4348 142.117 19.4682 142.179 19.5351C142.245 19.6019 142.279 19.6799 142.279 19.7691V23.446C142.279 23.5351 142.245 23.6131 142.179 23.68ZM142.179 18.315C142.117 18.3763 142.04 18.4069 141.945 18.4069C141.85 18.4069 141.77 18.3763 141.703 18.315C141.642 18.2482 141.611 18.1674 141.611 18.0727V17.847C141.611 17.7579 141.642 17.6799 141.703 17.613C141.77 17.5462 141.85 17.5128 141.945 17.5128C142.04 17.5128 142.117 17.5462 142.179 17.613C142.245 17.6799 142.279 17.7579 142.279 17.847V18.0727C142.279 18.1674 142.245 18.2482 142.179 18.315Z" fill="black"/>
<path d="M146.889 21.6075C146.889 20.4376 146.444 19.8526 145.554 19.8526C144.664 19.8526 144.219 20.4376 144.219 21.6075C144.219 22.7775 144.664 23.3624 145.554 23.3624C146.444 23.3624 146.889 22.7775 146.889 21.6075ZM147.014 23.2705C146.663 23.6661 146.177 23.8638 145.554 23.8638C144.931 23.8638 144.444 23.6661 144.094 23.2705C143.743 22.875 143.568 22.3206 143.568 21.6075C143.568 20.8944 143.743 20.3401 144.094 19.9446C144.444 19.549 144.931 19.3512 145.554 19.3512C146.177 19.3512 146.663 19.549 147.014 19.9446C147.364 20.3401 147.539 20.8944 147.539 21.6075C147.539 22.3206 147.364 22.875 147.014 23.2705Z" fill="black"/>
<path d="M149.038 23.6883C148.977 23.7496 148.902 23.7803 148.813 23.7803C148.724 23.7803 148.649 23.7496 148.588 23.6883C148.526 23.6271 148.496 23.5518 148.496 23.4627V19.7356C148.496 19.6521 148.524 19.5824 148.579 19.5267C148.64 19.4654 148.713 19.4348 148.796 19.4348C148.88 19.4348 148.952 19.4654 149.013 19.5267C149.074 19.5824 149.105 19.6521 149.105 19.7356V20.0783C149.105 20.0838 149.108 20.0866 149.113 20.0866C149.119 20.0866 149.124 20.0838 149.13 20.0783C149.53 19.5936 150.006 19.3512 150.556 19.3512C151.063 19.3512 151.43 19.4933 151.658 19.7774C151.886 20.0615 152 20.5323 152 21.1897V23.4627C152 23.5518 151.969 23.6271 151.908 23.6883C151.852 23.7496 151.78 23.7803 151.691 23.7803C151.602 23.7803 151.527 23.7496 151.466 23.6883C151.405 23.6271 151.374 23.5518 151.374 23.4627V21.2733C151.374 20.7217 151.299 20.3485 151.149 20.1535C150.999 19.9529 150.746 19.8526 150.39 19.8526C150.1 19.8526 149.82 19.9891 149.547 20.2621C149.274 20.5295 149.138 20.8053 149.138 21.0894V23.4627C149.138 23.5518 149.105 23.6271 149.038 23.6883Z" fill="black"/>
<path d="M124.842 30.3043L123.857 26.2396C123.835 26.1455 123.849 26.0608 123.899 25.9856C123.954 25.904 124.026 25.8632 124.114 25.8632C124.213 25.8632 124.302 25.8977 124.379 25.9667C124.462 26.0357 124.514 26.1267 124.536 26.2396L125.355 30.1255C125.355 30.1318 125.358 30.1349 125.364 30.1349C125.369 30.1349 125.372 30.1318 125.372 30.1255L126.15 26.3337C126.183 26.1957 126.247 26.0828 126.34 25.995C126.44 25.9071 126.55 25.8632 126.671 25.8632C126.798 25.8632 126.911 25.9071 127.011 25.995C127.11 26.0828 127.173 26.1957 127.201 26.3337L127.971 30.1255C127.971 30.1318 127.976 30.1349 127.987 30.1349C127.993 30.1349 127.996 30.1318 127.996 30.1255L128.815 26.2302C128.843 26.1236 128.892 26.0357 128.964 25.9667C129.041 25.8977 129.129 25.8632 129.229 25.8632C129.312 25.8632 129.378 25.904 129.427 25.9856C129.477 26.0608 129.491 26.1424 129.469 26.2302L128.484 30.3043C128.451 30.436 128.385 30.5458 128.285 30.6336C128.191 30.7151 128.084 30.7559 127.963 30.7559C127.847 30.7559 127.739 30.712 127.64 30.6242C127.546 30.5364 127.482 30.4266 127.449 30.2949L126.671 26.5595C126.671 26.5532 126.669 26.5501 126.663 26.5501C126.658 26.5501 126.655 26.5532 126.655 26.5595L125.877 30.2949C125.849 30.4266 125.786 30.5364 125.686 30.6242C125.593 30.712 125.485 30.7559 125.364 30.7559C125.248 30.7559 125.14 30.7151 125.041 30.6336C124.942 30.5458 124.875 30.436 124.842 30.3043Z" fill="black"/>
<path d="M131.966 26.3149C131.199 26.3149 130.78 26.8324 130.708 27.8674C130.708 27.9175 130.733 27.9426 130.783 27.9426H133.009C133.053 27.9426 133.075 27.9175 133.075 27.8674C133.042 26.8324 132.673 26.3149 131.966 26.3149ZM132.14 30.85C131.462 30.85 130.946 30.6399 130.592 30.2196C130.239 29.7931 130.063 29.1564 130.063 28.3096C130.063 27.4377 130.231 26.7979 130.568 26.3901C130.91 25.9761 131.376 25.7691 131.966 25.7691C133.053 25.7691 133.63 26.4999 133.696 27.9614C133.702 28.112 133.655 28.2406 133.555 28.3472C133.462 28.4476 133.349 28.4978 133.216 28.4978H130.766C130.722 28.4978 130.7 28.526 130.7 28.5824C130.75 29.7303 131.249 30.3043 132.198 30.3043C132.513 30.3043 132.835 30.2384 133.166 30.1067C133.227 30.0816 133.285 30.091 133.34 30.1349C133.395 30.1726 133.423 30.229 133.423 30.3043C133.423 30.5175 133.338 30.6493 133.166 30.6995C132.813 30.7998 132.471 30.85 132.14 30.85Z" fill="black"/>
<path d="M136.778 28.1684C136.232 28.1684 135.818 28.2688 135.537 28.4695C135.261 28.6702 135.123 28.9525 135.123 29.3163C135.123 29.5986 135.192 29.8276 135.33 30.0032C135.474 30.1726 135.661 30.2572 135.893 30.2572C136.29 30.2572 136.618 30.1067 136.878 29.8056C137.143 29.5045 137.275 29.1062 137.275 28.6107V28.2531C137.275 28.1967 137.25 28.1684 137.201 28.1684H136.778ZM135.76 30.85C135.385 30.85 135.079 30.7151 134.842 30.4454C134.605 30.1757 134.486 29.8181 134.486 29.3728C134.486 28.8522 134.668 28.435 135.032 28.1214C135.396 27.8078 135.978 27.6509 136.778 27.6509H137.201C137.25 27.6509 137.275 27.6259 137.275 27.5757V27.3969C137.275 27.0143 137.198 26.7477 137.043 26.5971C136.889 26.4403 136.616 26.3619 136.224 26.3619C135.843 26.3619 135.432 26.4435 134.991 26.6065C134.925 26.6316 134.864 26.6222 134.809 26.5783C134.753 26.5344 134.726 26.4717 134.726 26.3901C134.726 26.1706 134.817 26.0295 134.999 25.9667C135.407 25.835 135.816 25.7691 136.224 25.7691C136.858 25.7691 137.297 25.9009 137.54 26.1643C137.788 26.4278 137.912 26.9014 137.912 27.5851V30.4172C137.912 30.5113 137.882 30.5928 137.821 30.6618C137.766 30.7245 137.697 30.7559 137.614 30.7559C137.532 30.7559 137.46 30.7245 137.399 30.6618C137.339 30.5928 137.308 30.5113 137.308 30.4172L137.3 29.9279C137.3 29.9216 137.297 29.9185 137.292 29.9185C137.281 29.9185 137.275 29.9248 137.275 29.9373C136.95 30.5458 136.445 30.85 135.76 30.85Z" fill="black"/>
<path d="M139.677 30.643C139.616 30.7183 139.539 30.7559 139.445 30.7559C139.351 30.7559 139.271 30.7183 139.205 30.643C139.144 30.5677 139.114 30.4799 139.114 30.3795V26.2208C139.114 26.1204 139.144 26.0357 139.205 25.9667C139.266 25.8977 139.34 25.8632 139.428 25.8632C139.517 25.8632 139.591 25.8977 139.652 25.9667C139.713 26.0357 139.743 26.1204 139.743 26.2208V26.9453C139.743 26.9515 139.746 26.9547 139.751 26.9547C139.762 26.9547 139.768 26.9484 139.768 26.9359C139.933 26.6222 140.165 26.3713 140.463 26.1831C140.766 25.9887 141.106 25.8821 141.481 25.8632C141.558 25.857 141.624 25.8852 141.68 25.9479C141.735 26.0106 141.762 26.0859 141.762 26.1737C141.762 26.2553 141.735 26.3274 141.68 26.3901C141.63 26.4529 141.567 26.4874 141.489 26.4936C140.943 26.5187 140.521 26.7006 140.223 27.0394C139.925 27.3718 139.776 27.8391 139.776 28.4413V30.3795C139.776 30.4799 139.743 30.5677 139.677 30.643Z" fill="black"/>
</svg>
