<svg width="606" height="101" xmlns="http://www.w3.org/2000/svg" fill="none"><path d="M600.149 99.879c-1.13 0-2.211-.158-3.245-.475-1.033-.331-1.853-.751-2.459-1.261l.93-2.087c.579.455 1.295.834 2.149 1.137.855.303 1.729.455 2.625.455.758 0 1.371-.083 1.839-.248.468-.165.813-.386 1.033-.661.221-.289.331-.613.331-.971 0-.441-.159-.792-.475-1.054-.317-.276-.731-.489-1.24-.641-.496-.165-1.054-.317-1.674-.455-.606-.138-1.219-.296-1.839-.475-.607-.193-1.164-.434-1.674-.723-.496-.303-.903-.703-1.219-1.199-.317-.496-.476-1.13-.476-1.901 0-.785.207-1.502.62-2.149.427-.661 1.068-1.185 1.922-1.57.868-.4 1.963-.599 3.286-.599.868 0 1.729.11 2.583.331.854.221 1.598.537 2.232.951l-.848 2.087c-.647-.386-1.315-.668-2.004-.847-.689-.193-1.35-.289-1.984-.289-.744 0-1.35.09-1.818.269-.455.179-.793.413-1.013.703-.207.289-.31.62-.31.992 0 .441.152.799.455 1.075.317.262.723.468 1.219.62.51.151 1.075.303 1.694.455.62.138 1.233.296 1.84.475.62.179 1.178.413 1.673.703.51.289.917.682 1.22 1.178.317.496.475 1.123.475 1.88 0 .772-.214 1.488-.641 2.149-.413.647-1.054 1.171-1.921 1.57-.868.386-1.964.579-3.286.579z" fill="#228ECE"/><path d="M575 99.672v-14.466h2.211l9.072 11.138h-1.095v-11.138h2.666v14.466h-2.212l-9.071-11.138h1.095v11.138h-2.666z" fill="#228ECE"/><path d="M560.444 99.879c-1.13 0-2.17-.186-3.12-.558-.951-.372-1.777-.889-2.48-1.55-.703-.675-1.247-1.46-1.633-2.356-.385-.909-.578-1.901-.578-2.976s.193-2.06.578-2.955c.386-.909.93-1.695 1.633-2.356.703-.675 1.529-1.199 2.48-1.57.95-.372 1.984-.558 3.099-.558 1.13 0 2.163.186 3.1.558.951.372 1.777.895 2.48 1.57.703.661 1.247 1.447 1.633 2.356.385.895.578 1.88.578 2.955 0 1.075-.193 2.066-.578 2.976-.386.909-.93 1.695-1.633 2.356-.703.661-1.529 1.178-2.48 1.55-.937.372-1.963.558-3.079.558zm-.021-2.356c.731 0 1.406-.124 2.026-.372.62-.248 1.157-.599 1.611-1.054.455-.468.806-1.006 1.054-1.612.262-.62.393-1.302.393-2.046 0-.744-.131-1.419-.393-2.025-.248-.62-.599-1.157-1.054-1.612-.454-.468-.991-.827-1.611-1.075s-1.295-.372-2.026-.372c-.73 0-1.405.124-2.025.372-.606.248-1.143.606-1.612 1.075-.454.455-.812.992-1.074 1.612-.248.606-.372 1.281-.372 2.025 0 .73.124 1.405.372 2.025.262.62.62 1.164 1.074 1.632.455.455.992.806 1.612 1.054.62.248 1.295.372 2.025.372z" fill="#228ECE"/><path d="M543.133 99.672v-14.466h2.686v14.466h-2.686z" fill="#228ECE"/><path d="M529.7 99.672v-12.192h-4.794v-2.273h12.275v2.273h-4.794v12.192h-2.687z" fill="#228ECE"/><path d="M513.008 99.879c-1.984 0-3.54-.558-4.67-1.674-1.116-1.116-1.674-2.728-1.674-4.836v-8.163h2.687v8.059c0 1.488.316 2.569.95 3.244.648.675 1.557 1.013 2.728 1.013 1.171 0 2.073-.338 2.707-1.013.634-.675.951-1.757.951-3.244v-8.059h2.645v8.163c0 2.108-.565 3.72-1.695 4.836-1.116 1.116-2.659 1.674-4.629 1.674z" fill="#228ECE"/><path d="M490.68 99.672v-14.466h2.686v12.192h7.563v2.273h-10.249z" fill="#228ECE"/><path d="M476.124 99.879c-1.13 0-2.17-.186-3.121-.558-.95-.372-1.777-.889-2.479-1.55-.703-.675-1.247-1.46-1.633-2.356-.386-.909-.579-1.901-.579-2.976s.193-2.06.579-2.955c.386-.909.93-1.695 1.633-2.356.702-.675 1.529-1.199 2.479-1.57.951-.372 1.984-.558 3.1-.558 1.13 0 2.163.186 3.1.558.95.372 1.777.895 2.48 1.57.702.661 1.246 1.447 1.632 2.356.386.895.579 1.88.579 2.955 0 1.075-.193 2.066-.579 2.976-.386.909-.93 1.695-1.632 2.356-.703.661-1.53 1.178-2.48 1.55-.937.372-1.963.558-3.079.558zm-.021-2.356c.73 0 1.405-.124 2.025-.372.62-.248 1.158-.599 1.612-1.054.455-.468.806-1.006 1.054-1.612.262-.62.393-1.302.393-2.046 0-.744-.131-1.419-.393-2.025-.248-.62-.599-1.157-1.054-1.612-.454-.468-.992-.827-1.612-1.075-.62-.248-1.295-.372-2.025-.372s-1.405.124-2.025.372c-.606.248-1.143.606-1.612 1.075-.455.455-.813.992-1.074 1.612-.248.606-.372 1.281-.372 2.025 0 .73.124 1.405.372 2.025.261.62.619 1.164 1.074 1.632.455.455.992.806 1.612 1.054.62.248 1.295.372 2.025.372z" fill="#228ECE"/><path d="M456.899 99.879c-1.13 0-2.211-.158-3.245-.475-1.033-.331-1.853-.751-2.459-1.261l.93-2.087c.579.455 1.295.834 2.149 1.137.855.303 1.729.455 2.625.455.758 0 1.371-.083 1.839-.248.468-.165.813-.386 1.033-.661.221-.289.331-.613.331-.971 0-.441-.159-.792-.475-1.054-.317-.276-.731-.489-1.24-.641-.496-.165-1.054-.317-1.674-.455-.606-.138-1.219-.296-1.839-.475-.607-.193-1.164-.434-1.674-.723-.496-.303-.903-.703-1.219-1.199-.317-.496-.476-1.13-.476-1.901 0-.785.207-1.502.62-2.149.427-.661 1.068-1.185 1.922-1.57.868-.4 1.963-.599 3.286-.599.868 0 1.729.11 2.583.331.854.221 1.598.537 2.232.951l-.848 2.087c-.647-.386-1.315-.668-2.004-.847-.689-.193-1.35-.289-1.984-.289-.744 0-1.35.09-1.818.269-.455.179-.793.413-1.013.703-.207.289-.31.62-.31.992 0 .441.152.799.455 1.075.317.262.723.468 1.219.62.51.151 1.075.303 1.694.455.62.138 1.233.296 1.84.475.62.179 1.178.413 1.673.703.51.289.917.682 1.22 1.178.317.496.475 1.123.475 1.88 0 .772-.214 1.488-.641 2.149-.413.647-1.054 1.171-1.921 1.57-.868.386-1.964.579-3.286.579z" fill="#228ECE"/><path d="M421.758 99.672v-14.466h6.323c1.571 0 2.948.303 4.133.909 1.185.606 2.108 1.447 2.769 2.521.662 1.075.992 2.342.992 3.802 0 1.447-.33 2.714-.992 3.802-.661 1.075-1.584 1.915-2.769 2.521-1.185.606-2.562.909-4.133.909h-6.323zm2.686-2.273h3.513c1.089 0 2.025-.207 2.811-.62.799-.413 1.412-.992 1.839-1.736.441-.744.661-1.612.661-2.604 0-1.006-.22-1.874-.661-2.604-.427-.744-1.04-1.323-1.839-1.736-.786-.413-1.722-.62-2.811-.62h-3.513v9.919z" fill="#228ECE"/><path d="M407.735 99.879c-1.984 0-3.541-.558-4.671-1.674-1.115-1.116-1.673-2.728-1.673-4.836v-8.163h2.686v8.059c0 1.488.317 2.569.951 3.244.647.675 1.556 1.013 2.727 1.013 1.171 0 2.074-.338 2.708-1.013.633-.675.95-1.757.95-3.244v-8.059h2.645v8.163c0 2.108-.565 3.72-1.694 4.836-1.116 1.116-2.659 1.674-4.629 1.674z" fill="#228ECE"/><path d="M386.96 99.879c-1.13 0-2.17-.186-3.121-.558-.95-.372-1.777-.889-2.479-1.55-.703-.675-1.247-1.46-1.633-2.356-.386-.909-.579-1.901-.579-2.976s.193-2.06.579-2.955c.386-.909.93-1.695 1.633-2.356.702-.675 1.529-1.199 2.479-1.57.951-.372 1.984-.558 3.1-.558 1.13 0 2.163.186 3.1.558.95.372 1.777.895 2.48 1.57.702.661 1.246 1.447 1.632 2.356.386.895.579 1.88.579 2.955 0 1.075-.193 2.066-.579 2.976-.386.909-.93 1.695-1.632 2.356-.703.661-1.53 1.178-2.48 1.55-.937.372-1.963.558-3.079.558zm-.021-2.356c.73 0 1.405-.124 2.025-.372.62-.248 1.157-.599 1.612-1.054.455-.468.806-1.006 1.054-1.612.262-.62.393-1.302.393-2.046 0-.744-.131-1.419-.393-2.025-.248-.62-.599-1.157-1.054-1.612-.455-.468-.992-.827-1.612-1.075-.62-.248-1.295-.372-2.025-.372s-1.405.124-2.025.372c-.606.248-1.144.606-1.612 1.075-.455.455-.813.992-1.074 1.612-.248.606-.372 1.281-.372 2.025 0 .73.124 1.405.372 2.025.261.62.619 1.164 1.074 1.632.455.455.992.806 1.612 1.054.62.248 1.295.372 2.025.372z" fill="#228ECE"/><path d="M364.141 99.672v-14.466h2.686v12.192h7.563v2.273h-10.249z" fill="#228ECE"/><path d="M351.885 99.879c-1.102 0-2.129-.179-3.079-.537-.937-.372-1.757-.889-2.459-1.55-.689-.675-1.226-1.467-1.612-2.377-.386-.909-.579-1.901-.579-2.976s.193-2.067.579-2.976c.386-.909.93-1.695 1.632-2.356.703-.675 1.523-1.192 2.46-1.55.936-.372 1.963-.558 3.079-.558 1.184 0 2.266.207 3.244.62.978.4 1.805.999 2.48 1.798l-1.736 1.632c-.524-.565-1.109-.985-1.757-1.26-.647-.289-1.35-.434-2.107-.434-.758 0-1.454.124-2.088.372-.62.248-1.164.599-1.632 1.054-.455.455-.813.992-1.075 1.612-.248.62-.372 1.302-.372 2.046 0 .744.124 1.426.372 2.046.262.62.62 1.157 1.075 1.612.468.455 1.012.806 1.632 1.054.634.248 1.33.372 2.088.372.757 0 1.46-.138 2.107-.413.648-.289 1.233-.723 1.757-1.302l1.736 1.653c-.675.785-1.502 1.385-2.48 1.798-.978.413-2.067.62-3.265.62z" fill="#228ECE"/><path d="M321.191 99.88c-1.005 0-1.908-.165-2.707-.496-.799-.331-1.426-.785-1.88-1.364-.455-.579-.682-1.247-.682-2.004 0-.689.151-1.309.455-1.86.303-.551.785-1.075 1.446-1.57.661-.51 1.509-1.02 2.542-1.529.813-.4 1.446-.751 1.901-1.054.468-.303.792-.592.971-.868.193-.276.29-.565.29-.868 0-.413-.145-.744-.434-.992-.29-.262-.703-.393-1.24-.393-.579 0-1.034.145-1.364.434-.317.275-.475.641-.475 1.095 0 .234.041.462.124.682.096.22.261.468.495.744.235.276.572.627 1.013 1.054l7.646 7.336-1.426 1.674-8.266-7.935c-.468-.455-.847-.875-1.136-1.261-.29-.386-.496-.758-.62-1.116-.124-.372-.186-.751-.186-1.137 0-.675.172-1.267.516-1.777.345-.523.834-.923 1.468-1.199.633-.289 1.37-.434 2.211-.434.785 0 1.46.131 2.025.393.578.248 1.026.613 1.343 1.095.331.468.496 1.033.496 1.695 0 .579-.145 1.116-.434 1.612-.289.482-.744.944-1.364 1.385-.606.441-1.419.902-2.438 1.385-.758.372-1.357.723-1.798 1.054-.441.331-.758.661-.951.992-.193.331-.289.696-.289 1.095 0 .4.117.751.351 1.054.248.303.593.544 1.034.723.44.165.957.248 1.549.248.882 0 1.681-.193 2.398-.579.73-.4 1.343-.992 1.839-1.777.496-.785.854-1.757 1.074-2.914l2.087.682c-.289 1.392-.792 2.59-1.508 3.596-.703.992-1.571 1.756-2.604 2.294-1.033.537-2.19.806-3.472.806z" fill="#228ECE"/><path d="M293.935 99.672v-12.192h-4.794v-2.273h12.275v2.273h-4.795v12.192h-2.686z" fill="#228ECE"/><path d="M276.647 99.879c-1.129 0-2.17-.186-3.12-.558-.951-.372-1.777-.889-2.48-1.55-.703-.675-1.247-1.46-1.632-2.356-.386-.909-.579-1.901-.579-2.976s.193-2.06.579-2.955c.385-.909.929-1.695 1.632-2.356.703-.675 1.529-1.199 2.48-1.57.95-.372 1.984-.558 3.1-.558 1.129 0 2.163.186 3.099.558.951.372 1.778.895 2.48 1.57.703.661 1.247 1.447 1.633 2.356.385.895.578 1.88.578 2.955 0 1.075-.193 2.066-.578 2.976-.386.909-.93 1.695-1.633 2.356-.702.661-1.529 1.178-2.48 1.55-.936.372-1.963.558-3.079.558zm-.02-2.356c.73 0 1.405-.124 2.025-.372.62-.248 1.157-.599 1.612-1.054.454-.468.806-1.006 1.054-1.612.261-.62.392-1.302.392-2.046 0-.744-.131-1.419-.392-2.025-.248-.62-.6-1.157-1.054-1.612-.455-.468-.992-.827-1.612-1.075-.62-.248-1.295-.372-2.025-.372-.731 0-1.406.124-2.026.372-.606.248-1.143.606-1.611 1.075-.455.455-.813.992-1.075 1.612-.248.606-.372 1.281-.372 2.025 0 .73.124 1.405.372 2.025.262.62.62 1.164 1.075 1.632.454.455.992.806 1.611 1.054.62.248 1.295.372 2.026.372z" fill="#228ECE"/><path d="M259.336 99.672v-14.466h2.686v14.466h-2.686z" fill="#228ECE"/><path d="M233.383 99.672v-14.466h2.686v12.192h7.564v2.273h-10.25z" fill="#228ECE"/><path d="M211.922 99.672l6.509-14.466h2.645l6.531 14.466h-2.811l-5.6-13.04h1.074l-5.579 13.04h-2.769zm2.996-3.348l.724-2.108h7.811l.723 2.108h-9.258z" fill="#228ECE"/><path d="M194.312 99.672v-14.466h6.779c1.735 0 3.058.344 3.967 1.033.909.675 1.364 1.584 1.364 2.728 0 .772-.179 1.433-.537 1.984-.358.537-.841.957-1.447 1.261-.592.289-1.24.434-1.942.434l.372-.744c.813 0 1.543.151 2.19.455.648.289 1.157.716 1.529 1.281.386.565.579 1.267.579 2.108 0 1.24-.475 2.204-1.426 2.893-.95.689-2.363 1.033-4.236 1.033h-7.192zm2.687-2.108h4.34c1.005 0 1.777-.165 2.314-.496.537-.331.806-.861.806-1.591 0-.716-.269-1.24-.806-1.571-.537-.344-1.309-.517-2.314-.517h-4.547v-2.087h4.009c.937 0 1.653-.165 2.149-.496.51-.331.765-.827.765-1.488 0-.675-.255-1.178-.765-1.508-.496-.331-1.212-.496-2.149-.496h-3.802v10.25z" fill="#228ECE"/><path d="M179.757 99.879c-1.13 0-2.17-.186-3.121-.558-.95-.372-1.777-.889-2.48-1.55-.702-.675-1.246-1.46-1.632-2.356-.386-.909-.579-1.901-.579-2.976s.193-2.06.579-2.955c.386-.909.93-1.695 1.632-2.356.703-.675 1.53-1.199 2.48-1.57.951-.372 1.984-.558 3.1-.558 1.13 0 2.163.186 3.1.558.95.372 1.777.895 2.479 1.57.703.661 1.247 1.447 1.633 2.356.386.895.579 1.88.579 2.955 0 1.075-.193 2.066-.579 2.976-.386.909-.93 1.695-1.633 2.356-.702.661-1.529 1.178-2.479 1.55-.937.372-1.963.558-3.079.558zm-.021-2.356c.73 0 1.405-.124 2.025-.372.62-.248 1.157-.599 1.612-1.054.455-.468.806-1.006 1.054-1.612.262-.62.393-1.302.393-2.046 0-.744-.131-1.419-.393-2.025-.248-.62-.599-1.157-1.054-1.612-.455-.468-.992-.827-1.612-1.075-.62-.248-1.295-.372-2.025-.372s-1.405.124-2.025.372c-.606.248-1.144.606-1.612 1.075-.455.455-.813.992-1.075 1.612-.248.606-.372 1.281-.372 2.025 0 .73.124 1.405.372 2.025.262.62.62 1.164 1.075 1.632.455.455.992.806 1.612 1.054.62.248 1.295.372 2.025.372z" fill="#228ECE"/><path d="M156.938 99.672v-14.466h2.686v12.192h7.563v2.273h-10.249z" fill="#228ECE"/><path d="M143.791 99.879c-1.13 0-2.17-.179-3.121-.537-.937-.372-1.756-.889-2.459-1.55-.702-.675-1.247-1.467-1.632-2.377-.386-.909-.579-1.901-.579-2.976s.193-2.067.579-2.976c.385-.909.93-1.695 1.632-2.356.717-.675 1.55-1.192 2.501-1.55.95-.372 1.99-.558 3.12-.558 1.226 0 2.328.2 3.306.599.992.4 1.826.985 2.501 1.757l-1.695 1.653c-.565-.565-1.178-.978-1.839-1.24-.647-.275-1.364-.413-2.149-.413-.758 0-1.46.124-2.108.372-.647.248-1.205.599-1.674 1.054-.468.455-.833.992-1.095 1.612-.248.62-.372 1.302-.372 2.046 0 .73.124 1.405.372 2.025.262.62.627 1.164 1.095 1.632.469.455 1.02.806 1.653 1.054.634.248 1.337.372 2.108.372.717 0 1.406-.11 2.067-.331.675-.234 1.315-.62 1.922-1.157l1.529 2.005c-.758.606-1.64 1.068-2.645 1.385-.992.303-1.998.455-3.017.455zm3.12-2.191v-5.414h2.542v5.766l-2.542-.351z" fill="#228ECE"/><path fill-rule="evenodd" clip-rule="evenodd" d="M136.219.891h9.127v26.119l24.709-26.119h11.204l-21.593 22.334 22.557 29.607h-11.055l-17.734-23.374-8.088 8.311v15.063h-9.127v-51.941z" fill="#162844"/><path fill-rule="evenodd" clip-rule="evenodd" d="M191.492.891h9.127v43.631h27.307v8.311h-36.434v-51.941z" fill="#162844"/><path fill-rule="evenodd" clip-rule="evenodd" d="M240.93 52.832h9.126v-51.941h-9.126v51.941z" fill="#162844"/><path fill-rule="evenodd" clip-rule="evenodd" d="M264.672.891h9.126v26.119l24.71-26.119h11.204l-21.593 22.334 22.557 29.607h-11.056l-17.734-23.374-8.088 8.311v15.063h-9.126v-51.941z" fill="#162844"/><path fill-rule="evenodd" clip-rule="evenodd" d="M353.375 32.204l-8.978-20.776-8.905 20.776h17.883zm-13.059-31.686h8.459l22.854 52.312h-9.646l-5.269-12.54h-24.561l-5.342 12.54h-9.35l22.855-52.312z" fill="#162844"/><path fill-rule="evenodd" clip-rule="evenodd" d="M418.511 9.349h-16.472v-8.458h42.147v8.458h-16.473v43.483h-9.202v-43.483z" fill="#162844"/><path fill-rule="evenodd" clip-rule="evenodd" d="M504.227 26.861c0-14.766 11.056-26.861 26.787-26.861 9.572 0 15.359 3.34 20.331 8.088l-5.861 6.752c-4.156-3.858-8.608-6.456-14.544-6.456-9.944 0-17.142 8.163-17.142 18.477 0 10.166 7.198 18.477 17.142 18.477 6.38 0 10.462-2.597 14.914-6.752l5.862 5.936c-5.416 5.639-11.352 9.2-21.073 9.2-15.138 0-26.416-11.798-26.416-26.861z" fill="#162844"/><path fill-rule="evenodd" clip-rule="evenodd" d="M562.766.891h9.127v21.593h24.783v-21.593h9.127v51.941h-9.127v-21.89h-24.783v21.89h-9.127v-51.941z" fill="#162844"/><path fill-rule="evenodd" clip-rule="evenodd" d="M455.32 30.721h35.172v-8.162h-35.172v8.162z" fill="#162844"/><path fill-rule="evenodd" clip-rule="evenodd" d="M455.32 52.834h38.882v-8.162h-38.882v8.162z" fill="#162844"/><path fill-rule="evenodd" clip-rule="evenodd" d="M455.32 9.053h38.511v-8.162h-38.511v8.162z" fill="#162844"/><path fill-rule="evenodd" clip-rule="evenodd" d="M386.695 30.698c-2.115 0-3.836-1.721-3.836-3.837 0-2.115 1.721-3.836 3.836-3.836 2.115 0 3.836 1.721 3.836 3.836 0 2.116-1.721 3.837-3.836 3.837z" fill="#228ECE"/><path fill-rule="evenodd" clip-rule="evenodd" d="M44.359 24.64h8.642v-24.141h-8.642v24.141z" fill="#228ECE"/><path fill-rule="evenodd" clip-rule="evenodd" d="M75.352 55.641h24.141v-8.637h-24.141v8.637z" fill="#228ECE"/><path fill-rule="evenodd" clip-rule="evenodd" d="M64.492 29.399l17.067-17.071 6.112 6.108-17.071 17.071-6.108-6.108z" fill="#228ECE"/><path fill-rule="evenodd" clip-rule="evenodd" d="M0 93.229l35.117-35.12h-34.703v-10.108h51.965v51.962h-10.113v-34.704l-35.112 35.117-7.155-7.146z" fill="#228ECE"/><path fill-rule="evenodd" clip-rule="evenodd" d="M64.492 73.245l6.108-6.112 17.07 17.07-6.112 6.113-17.067-17.071z" fill="#228ECE"/><path fill-rule="evenodd" clip-rule="evenodd" d="M9.695 18.436l6.112-6.108 17.071 17.071-6.113 6.108-17.07-17.071z" fill="#228ECE"/></svg>